<svg width="125" height="125" viewBox="0 0 125 125" fill="none" xmlns="http://www.w3.org/2000/svg">
<g clip-path="url(#clip0_40_74)">
<path fill-rule="evenodd" clip-rule="evenodd" d="M89.8438 109.375C109.297 109.375 125 101.562 125 89.8438V15.625C125 7.8125 109.375 0 89.8438 0C70.3125 0 54.6875 7.8125 54.6875 15.625V42.9688C63.8281 46.7969 71.6406 53.2031 77.1875 61.3281C81.0156 62.0781 85.2344 62.4922 89.8438 62.4922C100.078 62.4922 108.594 60.4531 114.688 57.1328C115.553 56.6573 116.395 56.1411 117.211 55.5859V66.3672C117.211 68.2031 115.75 71.0547 110.945 73.6797C106.289 76.2188 99.1484 78.0859 89.8516 78.0859C87.9922 78.0859 86.2214 78.0156 84.5391 77.875C85.1641 80.4427 85.5807 83.0729 85.7891 85.7656C87.1068 85.8385 88.4609 85.875 89.8516 85.875C100.086 85.875 108.602 83.8359 114.695 80.5156C115.56 80.0401 116.403 79.5239 117.219 78.9688V89.75C117.219 91.5938 116.055 94.3281 111.039 97.0312C106.102 99.6875 98.6953 101.469 89.8672 101.469C88.0703 101.469 86.3307 101.396 84.6484 101.25C84.0478 103.847 83.2406 106.391 82.2344 108.859C84.6927 109.135 87.2344 109.273 89.8594 109.273L89.8438 109.375ZM110.938 50.3125C115.742 47.6875 117.203 44.8359 117.203 43V32.2188C116.396 32.7708 115.555 33.2865 114.68 33.7656C108.602 37.0859 100.07 39.125 89.8359 39.125C79.6016 39.125 71.0859 37.0859 64.9922 33.7656C64.1271 33.2901 63.285 32.7739 62.4687 32.2188V43C62.4687 44.8359 63.9297 47.6875 68.7344 50.3047C73.3906 52.8438 80.5312 54.7109 89.8281 54.7109C99.125 54.7109 106.234 52.8438 110.922 50.3047L110.938 50.3125ZM62.5 19.5312C62.5 17.2812 63.4766 15.1172 65.2969 13.7969C66.2891 13.0781 67.3672 12.3594 68.2188 11.9688C70.3516 10.9844 81.0312 7.80469 89.8594 7.80469C98.6875 7.80469 106.344 9.57812 111.5 11.9688C112.469 12.4141 113.539 13.1094 114.484 13.7969C116.289 15.1016 117.219 17.25 117.219 19.4766V19.5234C117.219 21.3594 115.758 24.2109 110.953 26.8359C106.297 29.375 99.1562 31.2422 89.8594 31.2422C80.5625 31.2422 73.4531 29.3672 68.7656 26.8359C63.9609 24.2188 62.5 21.3594 62.5 19.5312Z" fill="#D7FF47"/>
<path fill-rule="evenodd" clip-rule="evenodd" d="M70.3125 89.8438C70.3125 109.297 54.6094 125 35.1562 125C15.7031 125 0 109.297 0 89.8438C0 70.3906 15.7031 54.6875 35.1562 54.6875C54.6094 54.6875 70.3125 70.3906 70.3125 89.8438ZM62.5 89.8438C62.5 104.922 50.2344 117.188 35.1562 117.188C20.0781 117.188 7.8125 104.922 7.8125 89.8438C7.8125 74.7656 20.0781 62.5 35.1562 62.5C50.2344 62.5 62.5 74.7656 62.5 89.8438Z" fill="#D7FF47"/>
</g>
<defs>
<clipPath id="clip0_40_74">
<rect width="125" height="125" fill="white"/>
</clipPath>
</defs>
</svg>
