<svg width="150" height="150" viewBox="0 0 150 150" fill="none" xmlns="http://www.w3.org/2000/svg">
<path d="M137 41.375C136.366 39.8478 135.152 38.6342 133.625 38C132.874 37.6797 132.067 37.5099 131.25 37.5H100C98.3425 37.5 96.7528 38.1585 95.5807 39.3306C94.4086 40.5027 93.7501 42.0924 93.7501 43.75C93.7501 45.4076 94.4086 46.9973 95.5807 48.1694C96.7528 49.3415 98.3425 50 100 50H116.188L81.2501 84.9375L60.6876 64.3125C60.1066 63.7267 59.4153 63.2617 58.6537 62.9444C57.8921 62.6271 57.0752 62.4638 56.2501 62.4638C55.425 62.4638 54.6081 62.6271 53.8465 62.9444C53.0849 63.2617 52.3936 63.7267 51.8126 64.3125L14.3126 101.813C13.7268 102.394 13.2618 103.085 12.9445 103.846C12.6272 104.608 12.4639 105.425 12.4639 106.25C12.4639 107.075 12.6272 107.892 12.9445 108.654C13.2618 109.415 13.7268 110.106 14.3126 110.687C14.8936 111.273 15.5849 111.738 16.3465 112.056C17.1081 112.373 17.925 112.536 18.7501 112.536C19.5752 112.536 20.3921 112.373 21.1537 112.056C21.9153 111.738 22.6066 111.273 23.1876 110.687L56.2501 77.5625L76.8126 98.1875C77.3936 98.7733 78.0849 99.2383 78.8465 99.5556C79.6081 99.8729 80.425 100.036 81.2501 100.036C82.0752 100.036 82.8921 99.8729 83.6537 99.5556C84.4153 99.2383 85.1066 98.7733 85.6876 98.1875L125 58.8125V75C125 76.6576 125.659 78.2473 126.831 79.4194C128.003 80.5915 129.593 81.25 131.25 81.25C132.908 81.25 134.497 80.5915 135.67 79.4194C136.842 78.2473 137.5 76.6576 137.5 75V43.75C137.49 42.9333 137.32 42.1264 137 41.375Z" fill="white"/>
</svg>
