<svg width="114" height="131" viewBox="0 0 114 131" fill="none" xmlns="http://www.w3.org/2000/svg">
<path d="M10.125 50.6375V121.25H103.875V50.6375L57 11.5813L10.125 50.6375ZM2.4375 44.8437L54 1.87813C54.8423 1.17657 55.9038 0.792389 57 0.792389C58.0962 0.792389 59.1577 1.17657 60 1.87813L111.562 44.8437C112.09 45.2835 112.515 45.8339 112.807 46.456C113.098 47.0781 113.25 47.7567 113.25 48.4437V125.937C113.25 127.181 112.756 128.373 111.877 129.252C110.998 130.131 109.806 130.625 108.562 130.625H5.4375C4.1943 130.625 3.00201 130.131 2.12294 129.252C1.24386 128.373 0.75 127.181 0.75 125.937V48.4437C0.750258 47.7567 0.901549 47.0781 1.19316 46.456C1.48477 45.8339 1.90958 45.2835 2.4375 44.8437Z" fill="white"/>
</svg>
