<svg width="150" height="150" viewBox="0 0 150 150" fill="none" xmlns="http://www.w3.org/2000/svg">
<path d="M131.25 68.75C131.25 103.438 107.25 135.875 75 143.75C42.75 135.875 18.75 103.438 18.75 68.75V31.25L75 6.25L131.25 31.25V68.75ZM75 131.25C98.4375 125 118.75 97.125 118.75 70.125V39.375L75 19.875L31.25 39.375V70.125C31.25 97.125 51.5625 125 75 131.25ZM92.5 68.75V59.375C92.5 50.625 83.75 43.75 75 43.75C66.25 43.75 57.5 50.625 57.5 59.375V68.75C53.75 68.75 50 72.5 50 76.25V98.125C50 102.5 53.75 106.25 57.5 106.25H91.875C96.25 106.25 100 102.5 100 98.75V76.875C100 72.5 96.25 68.75 92.5 68.75ZM84.375 68.75H65.625V59.375C65.625 54.375 70 51.25 75 51.25C80 51.25 84.375 54.375 84.375 59.375V68.75Z" fill="#D7FF47"/>
</svg>
