<svg width="200" height="200" viewBox="0 0 200 200" fill="none" xmlns="http://www.w3.org/2000/svg">
<rect width="200" height="200" rx="20" fill="white"/>
<path fill-rule="evenodd" clip-rule="evenodd" d="M30.3571 175H175V164.286H35.7143V25H25V169.643L30.3571 175ZM46.4286 148.214V62.5L51.7857 57.1429H73.2143L78.5714 62.5V148.214L73.2143 153.571H51.7857L46.4286 148.214ZM67.8571 142.857V67.8571H57.1429V142.857H67.8571ZM132.143 41.0714V148.214L137.5 153.571H158.929L164.286 148.214V41.0714L158.929 35.7143H137.5L132.143 41.0714ZM153.571 46.4286V142.857H142.857V94.6429V46.4286H153.571ZM89.2857 148.214V83.9286L94.6429 78.5714H116.071L121.429 83.9286V148.214L116.071 153.571H94.6429L89.2857 148.214ZM110.714 142.857V89.2857H100V142.857H110.714Z" fill="#169976"/>
</svg>
