<svg width="353" height="126" viewBox="0 0 353 126" fill="none" xmlns="http://www.w3.org/2000/svg">
<path d="M137.421 57.0316L137.704 29.033L149.824 29.1557C152.33 29.1811 154.486 29.6162 156.291 30.4612C158.096 31.2795 159.484 32.4536 160.455 33.9835C161.427 35.5134 161.902 37.3317 161.88 39.4382C161.859 41.5181 161.348 43.313 160.346 44.823C159.344 46.3329 157.932 47.492 156.11 48.3003C154.289 49.0819 152.125 49.46 149.619 49.4347L141.099 49.3484L144.008 46.4577L143.901 57.0972L137.421 57.0316ZM144.001 47.1777L141.152 44.0687L149.312 44.1513C151.312 44.1715 152.809 43.76 153.805 42.9167C154.8 42.0734 155.305 40.8918 155.321 39.3718C155.336 37.8253 154.855 36.6203 153.877 35.757C152.899 34.8938 151.41 34.452 149.41 34.4318L141.251 34.3492L144.162 31.2985L144.001 47.1777ZM166.276 57.3236L166.494 35.8047L172.734 35.8679L172.516 57.3868L166.276 57.3236ZM169.644 32.8365C168.498 32.8249 167.568 32.4821 166.855 31.8082C166.141 31.1343 165.79 30.304 165.8 29.3174C165.81 28.3308 166.178 27.5078 166.905 26.8484C167.632 26.1891 168.568 25.8652 169.715 25.8768C170.861 25.8884 171.791 26.2178 172.505 26.8651C173.219 27.4857 173.571 28.2893 173.561 29.2759C173.55 30.3159 173.181 31.1788 172.454 31.8648C171.754 32.5245 170.818 32.8483 169.644 32.8365ZM191.607 35.7389C193.314 35.7561 194.83 36.1182 196.157 36.825C197.51 37.5054 198.566 38.5561 199.325 39.9772C200.084 41.3716 200.453 43.1621 200.431 45.3487L200.306 57.668L194.066 57.6049L194.181 46.2455C194.199 44.5122 193.825 43.2284 193.06 42.3939C192.322 41.5597 191.259 41.1356 189.873 41.1216C188.886 41.1116 187.991 41.3159 187.186 41.7344C186.409 42.1266 185.789 42.747 185.328 43.5957C184.892 44.4447 184.668 45.5358 184.654 46.8691L184.547 57.5085L178.307 57.4454L178.525 35.9265L184.485 35.9868L184.424 41.9465L183.322 40.1353C184.11 38.7032 185.228 37.6077 186.676 36.849C188.124 36.0903 189.767 35.7203 191.607 35.7389ZM214.758 58.1343C212.225 58.1087 210.258 57.4487 208.858 56.1545C207.458 54.8336 206.771 52.8932 206.797 50.3333L206.988 31.4543L213.227 31.5175L213.037 50.3165C213.028 51.2231 213.261 51.9322 213.736 52.4437C214.211 52.9285 214.862 53.1751 215.688 53.1835C216.675 53.1935 217.518 52.9353 218.216 52.409L219.852 56.8258C219.207 57.2726 218.43 57.6114 217.521 57.8423C216.639 58.0467 215.718 58.144 214.758 58.1343ZM203.566 41.4602L203.615 36.6604L218.534 36.8114L218.486 41.6112L203.566 41.4602ZM236.543 58.0348L236.586 53.835L236.195 52.911L236.271 45.3914C236.285 44.0581 235.882 43.014 235.063 42.259C234.27 41.5042 233.034 41.1184 231.354 41.1014C230.208 41.0898 229.072 41.265 227.949 41.6269C226.852 41.9625 225.914 42.4331 225.134 43.0385L222.939 38.6561C224.12 37.8413 225.54 37.2157 227.198 36.7791C228.856 36.3425 230.538 36.1329 232.244 36.1501C235.524 36.1833 238.063 36.9824 239.86 38.5473C241.658 40.1123 242.54 42.5347 242.507 45.8145L242.383 58.0939L236.543 58.0348ZM229.98 58.2884C228.3 58.2714 226.863 57.9768 225.669 57.4047C224.475 56.8059 223.563 56.01 222.933 55.0169C222.303 54.0238 221.994 52.9139 222.007 51.6873C222.02 50.4074 222.338 49.2906 222.961 48.3368C223.61 47.3833 224.618 46.6468 225.983 46.1273C227.349 45.5811 229.125 45.319 231.311 45.3412L237.031 45.3991L236.994 49.0389L231.954 48.9879C230.488 48.973 229.472 49.2028 228.907 49.6771C228.369 50.1516 228.096 50.7489 228.089 51.4689C228.081 52.2688 228.381 52.9119 228.99 53.3981C229.625 53.8579 230.489 54.0933 231.583 54.1044C232.623 54.1149 233.558 53.8843 234.39 53.4127C235.222 52.9145 235.829 52.1872 236.212 51.2311L237.143 54.1206C236.675 55.5026 235.838 56.5476 234.631 57.2554C233.424 57.9632 231.873 58.3075 229.98 58.2884ZM248.03 58.151L248.248 36.6321L254.208 36.6924L254.146 42.7721L253.324 41.0037C253.979 39.4903 255.017 38.354 256.438 37.5951C257.86 36.8094 259.584 36.4268 261.61 36.4473L261.552 42.207C261.286 42.1777 261.046 42.1619 260.833 42.1598C260.619 42.1309 260.393 42.1153 260.153 42.1129C258.446 42.0956 257.055 42.5749 255.978 43.5507C254.929 44.5001 254.393 46.0015 254.373 48.0547L254.27 58.2142L248.03 58.151Z" fill="#169976"/>
<path d="M137.568 97.0462V69.0462H142.928L154.848 88.8062H152.008L163.728 69.0462H169.048L169.128 97.0462H163.048L163.008 78.3662H164.128L154.768 94.0862H151.848L142.288 78.3662H143.648V97.0462H137.568ZM186.011 97.3662C183.558 97.3662 181.398 96.8862 179.531 95.9262C177.691 94.9662 176.264 93.6595 175.251 92.0062C174.238 90.3262 173.731 88.4195 173.731 86.2862C173.731 84.1262 174.224 82.2195 175.211 80.5662C176.224 78.8862 177.598 77.5795 179.331 76.6462C181.064 75.6862 183.024 75.2062 185.211 75.2062C187.318 75.2062 189.211 75.6595 190.891 76.5662C192.598 77.4462 193.944 78.7262 194.931 80.4062C195.918 82.0595 196.411 84.0462 196.411 86.3662C196.411 86.6062 196.398 86.8862 196.371 87.2062C196.344 87.4995 196.318 87.7795 196.291 88.0462H178.811V84.4062H193.011L190.611 85.4862C190.611 84.3662 190.384 83.3928 189.931 82.5662C189.478 81.7395 188.851 81.0995 188.051 80.6462C187.251 80.1662 186.318 79.9262 185.251 79.9262C184.184 79.9262 183.238 80.1662 182.411 80.6462C181.611 81.0995 180.984 81.7528 180.531 82.6062C180.078 83.4328 179.851 84.4195 179.851 85.5662V86.5262C179.851 87.6995 180.104 88.7395 180.611 89.6462C181.144 90.5262 181.878 91.2062 182.811 91.6862C183.771 92.1395 184.891 92.3662 186.171 92.3662C187.318 92.3662 188.318 92.1928 189.171 91.8462C190.051 91.4995 190.851 90.9795 191.571 90.2862L194.891 93.8862C193.904 95.0062 192.664 95.8728 191.171 96.4862C189.678 97.0728 187.958 97.3662 186.011 97.3662ZM213.645 75.2062C215.352 75.2062 216.872 75.5528 218.205 76.2462C219.565 76.9128 220.632 77.9528 221.405 79.3662C222.179 80.7528 222.565 82.5395 222.565 84.7262V97.0462H216.325V85.6862C216.325 83.9528 215.939 82.6728 215.165 81.8462C214.419 81.0195 213.352 80.6062 211.965 80.6062C210.979 80.6062 210.085 80.8195 209.285 81.2462C208.512 81.6462 207.899 82.2728 207.445 83.1262C207.019 83.9795 206.805 85.0728 206.805 86.4062V97.0462H200.565V75.5262H206.525V81.4862L205.405 79.6862C206.179 78.2462 207.285 77.1395 208.725 76.3662C210.165 75.5928 211.805 75.2062 213.645 75.2062ZM226.622 105.126C225.662 105.126 224.742 105.02 223.862 104.806C222.982 104.62 222.235 104.326 221.622 103.926L223.302 99.4062C224.022 99.9128 224.902 100.166 225.942 100.166C226.715 100.166 227.328 99.8995 227.782 99.3662C228.262 98.8595 228.502 98.0862 228.502 97.0462V75.5262H234.742V97.0062C234.742 99.4862 234.035 101.46 232.622 102.926C231.208 104.393 229.208 105.126 226.622 105.126ZM231.622 72.5262C230.475 72.5262 229.542 72.1928 228.822 71.5262C228.102 70.8595 227.742 70.0328 227.742 69.0462C227.742 68.0595 228.102 67.2328 228.822 66.5662C229.542 65.8995 230.475 65.5662 231.622 65.5662C232.768 65.5662 233.702 65.8862 234.422 66.5262C235.142 67.1395 235.502 67.9395 235.502 68.9262C235.502 69.9662 235.142 70.8328 234.422 71.5262C233.728 72.1928 232.795 72.5262 231.622 72.5262ZM253.687 97.0462V92.8462L253.287 91.9262V84.4062C253.287 83.0728 252.874 82.0328 252.047 81.2862C251.247 80.5395 250.007 80.1662 248.327 80.1662C247.181 80.1662 246.047 80.3528 244.927 80.7262C243.834 81.0728 242.901 81.5528 242.127 82.1662L239.887 77.8062C241.061 76.9795 242.474 76.3395 244.127 75.8862C245.781 75.4328 247.461 75.2062 249.167 75.2062C252.447 75.2062 254.994 75.9795 256.807 77.5262C258.621 79.0728 259.527 81.4862 259.527 84.7662V97.0462H253.687ZM247.127 97.3662C245.447 97.3662 244.007 97.0862 242.807 96.5262C241.607 95.9395 240.687 95.1528 240.047 94.1662C239.407 93.1795 239.087 92.0728 239.087 90.8462C239.087 89.5662 239.394 88.4462 240.007 87.4862C240.647 86.5262 241.647 85.7795 243.007 85.2462C244.367 84.6862 246.141 84.4062 248.327 84.4062H254.047V88.0462H249.007C247.541 88.0462 246.527 88.2862 245.967 88.7662C245.434 89.2462 245.167 89.8462 245.167 90.5662C245.167 91.3662 245.474 92.0062 246.087 92.4862C246.727 92.9395 247.594 93.1662 248.687 93.1662C249.727 93.1662 250.661 92.9262 251.487 92.4462C252.314 91.9395 252.914 91.2062 253.287 90.2462L254.247 93.1262C253.794 94.5128 252.967 95.5662 251.767 96.2862C250.567 97.0062 249.021 97.3662 247.127 97.3662ZM275.451 105.126C273.424 105.126 271.464 104.873 269.571 104.366C267.704 103.886 266.144 103.153 264.891 102.166L267.371 97.6862C268.278 98.4328 269.424 99.0195 270.811 99.4462C272.224 99.8995 273.611 100.126 274.971 100.126C277.184 100.126 278.784 99.6328 279.771 98.6462C280.784 97.6595 281.291 96.1928 281.291 94.2462V91.0062L281.691 85.6062L281.611 80.1662V75.5262H287.531V93.4462C287.531 97.4462 286.491 100.393 284.411 102.286C282.331 104.18 279.344 105.126 275.451 105.126ZM274.491 96.0062C272.491 96.0062 270.678 95.5795 269.051 94.7262C267.451 93.8462 266.158 92.6328 265.171 91.0862C264.211 89.5128 263.731 87.6862 263.731 85.6062C263.731 83.4995 264.211 81.6728 265.171 80.1262C266.158 78.5528 267.451 77.3395 269.051 76.4862C270.678 75.6328 272.491 75.2062 274.491 75.2062C276.304 75.2062 277.904 75.5795 279.291 76.3262C280.678 77.0462 281.758 78.1795 282.531 79.7262C283.304 81.2462 283.691 83.2062 283.691 85.6062C283.691 87.9795 283.304 89.9395 282.531 91.4862C281.758 93.0062 280.678 94.1395 279.291 94.8862C277.904 95.6328 276.304 96.0062 274.491 96.0062ZM275.731 90.8862C276.824 90.8862 277.798 90.6728 278.651 90.2462C279.504 89.7928 280.171 89.1662 280.651 88.3662C281.131 87.5662 281.371 86.6462 281.371 85.6062C281.371 84.5395 281.131 83.6195 280.651 82.8462C280.171 82.0462 279.504 81.4328 278.651 81.0062C277.798 80.5528 276.824 80.3262 275.731 80.3262C274.638 80.3262 273.664 80.5528 272.811 81.0062C271.958 81.4328 271.278 82.0462 270.771 82.8462C270.291 83.6195 270.051 84.5395 270.051 85.6062C270.051 86.6462 270.291 87.5662 270.771 88.3662C271.278 89.1662 271.958 89.7928 272.811 90.2462C273.664 90.6728 274.638 90.8862 275.731 90.8862ZM306.539 97.0462V92.8462L306.139 91.9262V84.4062C306.139 83.0728 305.725 82.0328 304.899 81.2862C304.099 80.5395 302.859 80.1662 301.179 80.1662C300.032 80.1662 298.899 80.3528 297.779 80.7262C296.685 81.0728 295.752 81.5528 294.979 82.1662L292.739 77.8062C293.912 76.9795 295.325 76.3395 296.979 75.8862C298.632 75.4328 300.312 75.2062 302.019 75.2062C305.299 75.2062 307.845 75.9795 309.659 77.5262C311.472 79.0728 312.379 81.4862 312.379 84.7662V97.0462H306.539ZM299.979 97.3662C298.299 97.3662 296.859 97.0862 295.659 96.5262C294.459 95.9395 293.539 95.1528 292.899 94.1662C292.259 93.1795 291.939 92.0728 291.939 90.8462C291.939 89.5662 292.245 88.4462 292.859 87.4862C293.499 86.5262 294.499 85.7795 295.859 85.2462C297.219 84.6862 298.992 84.4062 301.179 84.4062H306.899V88.0462H301.859C300.392 88.0462 299.379 88.2862 298.819 88.7662C298.285 89.2462 298.019 89.8462 298.019 90.5662C298.019 91.3662 298.325 92.0062 298.939 92.4862C299.579 92.9395 300.445 93.1662 301.539 93.1662C302.579 93.1662 303.512 92.9262 304.339 92.4462C305.165 91.9395 305.765 91.2062 306.139 90.2462L307.099 93.1262C306.645 94.5128 305.819 95.5662 304.619 96.2862C303.419 97.0062 301.872 97.3662 299.979 97.3662Z" fill="#169976"/>
<path fill-rule="evenodd" clip-rule="evenodd" d="M11.8125 110.25H118.125V102.375H15.75V0H7.875V106.312L11.8125 110.25ZM23.625 90.5625V27.5625L27.5625 23.625H43.3125L47.25 27.5625V90.5625L43.3125 94.5H27.5625L23.625 90.5625ZM39.375 86.625V31.5H31.5V86.625H39.375ZM86.625 11.8125V90.5625L90.5625 94.5H106.312L110.25 90.5625V11.8125L106.312 7.875H90.5625L86.625 11.8125ZM102.375 15.75V86.625H94.5V15.75H102.375ZM55.125 90.5625V43.3125L59.0625 39.375H74.8125L78.75 43.3125V90.5625L74.8125 94.5H59.0625L55.125 90.5625ZM70.875 86.625V47.25H63V86.625H70.875Z" fill="#169976"/>
</svg>
